# Blender v2.91.0 OBJ File: 'myRoom .blend1'
# www.blender.org
mtllib bedroomCurtainOn.mtl
o Scene_1_group_Room5_Curtain_Holder_Curtains
v -7.295090 19.049841 -98.323288
v -7.295090 19.049849 -138.323288
v -7.295090 15.049849 -138.323288
v -7.295090 15.049841 -98.323288
v -3.295090 19.049841 -98.323288
v -3.295090 19.049849 -138.323288
v -3.295090 15.049841 -98.323288
v -3.295090 15.049849 -138.323288
vt 0.448700 0.489400
vt 0.448700 0.489400
vt 0.448700 0.447800
vt 0.448700 0.447800
vt 0.490300 0.489400
vt 0.490300 0.489400
vt 0.490300 0.447800
vt 0.490300 0.447800
vn -1.0000 0.0000 0.0000
vn 0.0000 1.0000 0.0000
vn 1.0000 0.0000 0.0000
vn 0.0000 -1.0000 -0.0000
vn 0.0000 0.0000 1.0000
vn 0.0000 0.0000 -1.0000
g Scene_1_group_Room5_Curtain_Holder_Curtains_Scene_1_group_Room5_Curtain_Holder_Curtains_colors
usemtl colors
s 1
f 1/1/1 2/2/1 3/3/1
f 3/3/1 4/4/1 1/1/1
f 1/1/2 5/5/2 6/6/2
f 6/6/2 2/2/2 1/1/2
f 5/5/3 7/7/3 8/8/3
f 8/8/3 6/6/3 5/5/3
f 8/8/4 7/7/4 4/4/4
f 4/4/4 3/3/4 8/8/4
f 5/5/5 1/1/5 4/4/5
f 4/4/5 7/7/5 5/5/5
f 2/2/6 6/6/6 8/8/6
f 8/8/6 3/3/6 2/2/6
o Scene_1_group_Room5_Curtains_Blind1_Blinds
v -4.718290 16.609842 -98.924286
v -6.218290 16.609842 -101.522385
v -6.218290 -22.510159 -101.522400
v -4.718290 -22.510159 -98.924301
v -4.371890 16.609842 -99.124283
v -5.871890 16.609842 -101.722382
v -4.371890 -22.510159 -99.124298
v -5.871890 -22.510157 -101.722397
vt 0.648000 0.983300
vt 0.665900 0.983300
vt 0.665900 0.893800
vt 0.648000 0.893800
vt 0.651400 0.983300
vt 0.669300 0.983300
vt 0.651400 0.893800
vt 0.669300 0.893800
vn -0.8660 -0.0000 0.5000
vn 0.0000 1.0000 0.0000
vn 0.8660 0.0000 -0.5000
vn 0.0000 -1.0000 0.0000
vn 0.5000 -0.0000 0.8660
vn -0.5000 0.0000 -0.8660
g Scene_1_group_Room5_Curtains_Blind1_Blinds_Scene_1_group_Room5_Curtains_Blind1_Blinds_colors
usemtl colors
s 1
f 9/9/7 10/10/7 11/11/7
f 11/11/7 12/12/7 9/9/7
f 9/9/8 13/13/8 14/14/8
f 14/14/8 10/10/8 9/9/8
f 13/13/9 15/15/9 16/16/9
f 16/16/9 14/14/9 13/13/9
f 16/16/10 15/15/10 12/12/10
f 12/12/10 11/11/10 16/16/10
f 13/13/11 9/9/11 12/12/11
f 12/12/11 15/15/11 13/13/11
f 10/10/12 14/14/12 16/16/12
f 16/16/12 11/11/12 10/10/12
o Scene_1_group_Room5_Curtains_Blinds_Blind2
v -4.718290 16.609842 -100.924286
v -6.218290 16.609842 -103.522385
v -6.218290 -22.510157 -103.522400
v -4.718290 -22.510159 -100.924301
v -4.371890 16.609842 -101.124283
v -5.871890 16.609842 -103.722382
v -4.371890 -22.510159 -101.124298
v -5.871890 -22.510157 -103.722397
vt 0.648000 0.885300
vt 0.665900 0.885300
vt 0.665900 0.795800
vt 0.648000 0.795800
vt 0.651400 0.885300
vt 0.669300 0.885300
vt 0.651400 0.795800
vt 0.669300 0.795800
vn -0.8660 -0.0000 0.5000
vn 0.0000 1.0000 0.0000
vn 0.8660 0.0000 -0.5000
vn -0.0000 -1.0000 0.0000
vn 0.5000 -0.0000 0.8660
vn -0.5000 0.0000 -0.8660
g Scene_1_group_Room5_Curtains_Blinds_Blind2_Scene_1_group_Room5_Curtains_Blinds_Blind2_colors
usemtl colors
s 1
f 17/17/13 18/18/13 19/19/13
f 19/19/13 20/20/13 17/17/13
f 17/17/14 21/21/14 22/22/14
f 22/22/14 18/18/14 17/17/14
f 21/21/15 23/23/15 24/24/15
f 24/24/15 22/22/15 21/21/15
f 24/24/16 23/23/16 20/20/16
f 20/20/16 19/19/16 24/24/16
f 21/21/17 17/17/17 20/20/17
f 20/20/17 23/23/17 21/21/17
f 18/18/18 22/22/18 24/24/18
f 24/24/18 19/19/18 18/18/18
o Scene_1_group_Room5_Curtains_Blinds_Blind3
v -4.718290 16.609842 -102.924286
v -6.218290 16.609844 -105.522385
v -6.218290 -22.510157 -105.522400
v -4.718290 -22.510157 -102.924301
v -4.371890 16.609842 -103.124283
v -5.871890 16.609844 -105.722382
v -4.371890 -22.510157 -103.124298
v -5.871890 -22.510157 -105.722397
vt 0.648000 0.983300
vt 0.665900 0.983300
vt 0.665900 0.893800
vt 0.648000 0.893800
vt 0.651400 0.983300
vt 0.669300 0.983300
vt 0.651400 0.893800
vt 0.669300 0.893800
vn -0.8660 -0.0000 0.5000
vn 0.0000 1.0000 0.0000
vn 0.8660 0.0000 -0.5000
vn 0.0000 -1.0000 -0.0000
vn 0.5000 -0.0000 0.8660
vn -0.5000 0.0000 -0.8660
g Scene_1_group_Room5_Curtains_Blinds_Blind3_Scene_1_group_Room5_Curtains_Blinds_Blind3_colors
usemtl colors
s 1
f 25/25/19 26/26/19 27/27/19
f 27/27/19 28/28/19 25/25/19
f 25/25/20 29/29/20 30/30/20
f 30/30/20 26/26/20 25/25/20
f 29/29/21 31/31/21 32/32/21
f 32/32/21 30/30/21 29/29/21
f 32/32/22 31/31/22 28/28/22
f 28/28/22 27/27/22 32/32/22
f 29/29/23 25/25/23 28/28/23
f 28/28/23 31/31/23 29/29/23
f 26/26/24 30/30/24 32/32/24
f 32/32/24 27/27/24 26/26/24
o Scene_1_group_Room5_Curtains_Blinds_Blind4
v -4.718290 16.609844 -104.924286
v -6.218290 16.609844 -107.522385
v -6.218290 -22.510157 -107.522400
v -4.718290 -22.510157 -104.924301
v -4.371890 16.609844 -105.124283
v -5.871890 16.609844 -107.722382
v -4.371890 -22.510157 -105.124298
v -5.871890 -22.510157 -107.722397
vt 0.648000 0.885300
vt 0.665900 0.885300
vt 0.665900 0.795800
vt 0.648000 0.795800
vt 0.651400 0.885300
vt 0.669300 0.885300
vt 0.651400 0.795800
vt 0.669300 0.795800
vn -0.8660 -0.0000 0.5000
vn 0.0000 1.0000 0.0000
vn 0.8660 0.0000 -0.5000
vn 0.0000 -1.0000 -0.0000
vn 0.5000 -0.0000 0.8660
vn -0.5000 0.0000 -0.8660
g Scene_1_group_Room5_Curtains_Blinds_Blind4_Scene_1_group_Room5_Curtains_Blinds_Blind4_colors
usemtl colors
s 1
f 33/33/25 34/34/25 35/35/25
f 35/35/25 36/36/25 33/33/25
f 33/33/26 37/37/26 38/38/26
f 38/38/26 34/34/26 33/33/26
f 37/37/27 39/39/27 40/40/27
f 40/40/27 38/38/27 37/37/27
f 40/40/28 39/39/28 36/36/28
f 36/36/28 35/35/28 40/40/28
f 37/37/29 33/33/29 36/36/29
f 36/36/29 39/39/29 37/37/29
f 34/34/30 38/38/30 40/40/30
f 40/40/30 35/35/30 34/34/30
o Scene_1_group_Room5_Curtains_Blinds_Blind5
v -4.718290 16.609844 -106.924286
v -6.218290 16.609844 -109.522385
v -6.218290 -22.510157 -109.522400
v -4.718290 -22.510157 -106.924301
v -4.371890 16.609844 -107.124283
v -5.871890 16.609844 -109.722382
v -4.371890 -22.510157 -107.124298
v -5.871890 -22.510157 -109.722397
vt 0.648000 0.983300
vt 0.665900 0.983300
vt 0.665900 0.893800
vt 0.648000 0.893800
vt 0.651400 0.983300
vt 0.669300 0.983300
vt 0.651400 0.893800
vt 0.669300 0.893800
vn -0.8660 -0.0000 0.5000
vn 0.0000 1.0000 0.0000
vn 0.8660 0.0000 -0.5000
vn 0.0000 -1.0000 -0.0000
vn 0.5000 -0.0000 0.8660
vn -0.5000 0.0000 -0.8660
g Scene_1_group_Room5_Curtains_Blinds_Blind5_Scene_1_group_Room5_Curtains_Blinds_Blind5_colors
usemtl colors
s 1
f 41/41/31 42/42/31 43/43/31
f 43/43/31 44/44/31 41/41/31
f 41/41/32 45/45/32 46/46/32
f 46/46/32 42/42/32 41/41/32
f 45/45/33 47/47/33 48/48/33
f 48/48/33 46/46/33 45/45/33
f 48/48/34 47/47/34 44/44/34
f 44/44/34 43/43/34 48/48/34
f 45/45/35 41/41/35 44/44/35
f 44/44/35 47/47/35 45/45/35
f 42/42/36 46/46/36 48/48/36
f 48/48/36 43/43/36 42/42/36
o Scene_1_group_Room5_Curtains_Blinds_Blind6
v -4.718290 16.609844 -108.924286
v -6.218290 16.609844 -111.522385
v -6.218290 -22.510157 -111.522400
v -4.718290 -22.510157 -108.924301
v -4.371890 16.609844 -109.124283
v -5.871890 16.609844 -111.722382
v -4.371890 -22.510157 -109.124298
v -5.871890 -22.510157 -111.722397
vt 0.648000 0.885300
vt 0.665900 0.885300
vt 0.665900 0.795800
vt 0.648000 0.795800
vt 0.651400 0.885300
vt 0.669300 0.885300
vt 0.651400 0.795800
vt 0.669300 0.795800
vn -0.8660 -0.0000 0.5000
vn 0.0000 1.0000 0.0000
vn 0.8660 0.0000 -0.5000
vn 0.0000 -1.0000 -0.0000
vn 0.5000 -0.0000 0.8660
vn -0.5000 0.0000 -0.8660
g Scene_1_group_Room5_Curtains_Blinds_Blind6_Scene_1_group_Room5_Curtains_Blinds_Blind6_colors
usemtl colors
s 1
f 49/49/37 50/50/37 51/51/37
f 51/51/37 52/52/37 49/49/37
f 49/49/38 53/53/38 54/54/38
f 54/54/38 50/50/38 49/49/38
f 53/53/39 55/55/39 56/56/39
f 56/56/39 54/54/39 53/53/39
f 56/56/40 55/55/40 52/52/40
f 52/52/40 51/51/40 56/56/40
f 53/53/41 49/49/41 52/52/41
f 52/52/41 55/55/41 53/53/41
f 50/50/42 54/54/42 56/56/42
f 56/56/42 51/51/42 50/50/42
o Scene_1_group_Room5_Curtains_Blinds_Blind7
v -4.718290 16.609844 -110.924286
v -6.218290 16.609844 -113.522385
v -6.218290 -22.510155 -113.522400
v -4.718290 -22.510157 -110.924301
v -4.371890 16.609844 -111.124283
v -5.871890 16.609844 -113.722382
v -4.371890 -22.510157 -111.124298
v -5.871890 -22.510155 -113.722397
vt 0.648000 0.983300
vt 0.665900 0.983300
vt 0.665900 0.893800
vt 0.648000 0.893800
vt 0.651400 0.983300
vt 0.669300 0.983300
vt 0.651400 0.893800
vt 0.669300 0.893800
vn -0.8660 -0.0000 0.5000
vn 0.0000 1.0000 0.0000
vn 0.8660 0.0000 -0.5000
vn -0.0000 -1.0000 0.0000
vn 0.5000 -0.0000 0.8660
vn -0.5000 0.0000 -0.8660
g Scene_1_group_Room5_Curtains_Blinds_Blind7_Scene_1_group_Room5_Curtains_Blinds_Blind7_colors
usemtl colors
s 1
f 57/57/43 58/58/43 59/59/43
f 59/59/43 60/60/43 57/57/43
f 57/57/44 61/61/44 62/62/44
f 62/62/44 58/58/44 57/57/44
f 61/61/45 63/63/45 64/64/45
f 64/64/45 62/62/45 61/61/45
f 64/64/46 63/63/46 60/60/46
f 60/60/46 59/59/46 64/64/46
f 61/61/47 57/57/47 60/60/47
f 60/60/47 63/63/47 61/61/47
f 58/58/48 62/62/48 64/64/48
f 64/64/48 59/59/48 58/58/48
o Scene_1_group_Room5_Curtains_Blinds_Blind8
v -4.718290 16.609844 -112.924286
v -6.218290 16.609844 -115.522385
v -6.218290 -22.510155 -115.522400
v -4.718290 -22.510157 -112.924301
v -4.371890 16.609844 -113.124283
v -5.871890 16.609844 -115.722397
v -4.371890 -22.510157 -113.124298
v -5.871890 -22.510155 -115.722412
vt 0.648000 0.983300
vt 0.665900 0.983300
vt 0.665900 0.893800
vt 0.648000 0.893800
vt 0.651400 0.983300
vt 0.669300 0.983300
vt 0.651400 0.893800
vt 0.669300 0.893800
vn -0.8660 -0.0000 0.5000
vn 0.0000 1.0000 0.0000
vn 0.8660 0.0000 -0.5000
vn -0.0000 -1.0000 0.0000
vn 0.5000 -0.0000 0.8660
vn -0.5001 0.0000 -0.8660
vn -0.5000 0.0000 -0.8660
g Scene_1_group_Room5_Curtains_Blinds_Blind8_Scene_1_group_Room5_Curtains_Blinds_Blind8_colors
usemtl colors
s 1
f 65/65/49 66/66/49 67/67/49
f 67/67/49 68/68/49 65/65/49
f 65/65/50 69/69/50 70/70/50
f 70/70/50 66/66/50 65/65/50
f 69/69/51 71/71/51 72/72/51
f 72/72/51 70/70/51 69/69/51
f 72/72/52 71/71/52 68/68/52
f 68/68/52 67/67/52 72/72/52
f 69/69/53 65/65/53 68/68/53
f 68/68/53 71/71/53 69/69/53
f 66/66/54 70/70/54 72/72/55
f 72/72/55 67/67/55 66/66/54
o Scene_1_group_Room5_Curtains_Blinds_Blind9
v -4.718290 16.609844 -114.924286
v -6.218290 16.609846 -117.522385
v -6.218290 -22.510155 -117.522400
v -4.718290 -22.510155 -114.924301
v -4.371890 16.609844 -115.124283
v -5.871890 16.609846 -117.722397
v -4.371890 -22.510155 -115.124298
v -5.871890 -22.510155 -117.722412
vt 0.648000 0.983300
vt 0.665900 0.983300
vt 0.665900 0.893800
vt 0.648000 0.893800
vt 0.651400 0.983300
vt 0.669300 0.983300
vt 0.651400 0.893800
vt 0.669300 0.893800
vn -0.8660 -0.0000 0.5000
vn 0.0000 1.0000 0.0000
vn 0.8660 0.0000 -0.5000
vn 0.0000 -1.0000 0.0000
vn 0.5000 -0.0000 0.8660
vn -0.5000 0.0000 -0.8660
vn -0.5001 0.0000 -0.8660
g Scene_1_group_Room5_Curtains_Blinds_Blind9_Scene_1_group_Room5_Curtains_Blinds_Blind9_colors
usemtl colors
s 1
f 73/73/56 74/74/56 75/75/56
f 75/75/56 76/76/56 73/73/56
f 73/73/57 77/77/57 78/78/57
f 78/78/57 74/74/57 73/73/57
f 77/77/58 79/79/58 80/80/58
f 80/80/58 78/78/58 77/77/58
f 80/80/59 79/79/59 76/76/59
f 76/76/59 75/75/59 80/80/59
f 77/77/60 73/73/60 76/76/60
f 76/76/60 79/79/60 77/77/60
f 74/74/61 78/78/61 80/80/62
f 80/80/62 75/75/62 74/74/61
o Scene_1_group_Room5_Curtains_Blinds_Blind10
v -4.718290 16.609846 -116.924286
v -6.218290 16.609846 -119.522385
v -6.218290 -22.510155 -119.522385
v -4.718290 -22.510155 -116.924301
v -4.371890 16.609846 -117.124283
v -5.871890 16.609846 -119.722397
v -4.371890 -22.510155 -117.124298
v -5.871890 -22.510155 -119.722397
vt 0.648000 0.983300
vt 0.665900 0.983300
vt 0.665900 0.893800
vt 0.648000 0.893800
vt 0.651400 0.983300
vt 0.669300 0.983300
vt 0.651400 0.893800
vt 0.669300 0.893800
vn -0.8660 -0.0000 0.5000
vn 0.0000 1.0000 0.0000
vn 0.8660 0.0000 -0.5000
vn 0.0000 -1.0000 0.0000
vn 0.5000 -0.0000 0.8660
vn -0.5000 0.0000 -0.8660
vn -0.5001 0.0000 -0.8660
g Scene_1_group_Room5_Curtains_Blinds_Blind10_Scene_1_group_Room5_Curtains_Blinds_Blind10_colors
usemtl colors
s 1
f 81/81/63 82/82/63 83/83/63
f 83/83/63 84/84/63 81/81/63
f 81/81/64 85/85/64 86/86/64
f 86/86/64 82/82/64 81/81/64
f 85/85/65 87/87/65 88/88/65
f 88/88/65 86/86/65 85/85/65
f 88/88/66 87/87/66 84/84/66
f 84/84/66 83/83/66 88/88/66
f 85/85/67 81/81/67 84/84/67
f 84/84/67 87/87/67 85/85/67
f 82/82/68 86/86/68 88/88/69
f 88/88/69 83/83/69 82/82/68
o Scene_1_group_Room5_Curtains_Blinds_Blind11
v -4.718290 16.609846 -118.924286
v -6.218290 16.609846 -121.522385
v -6.218290 -22.510155 -121.522385
v -4.718290 -22.510155 -118.924286
v -4.371890 16.609846 -119.124283
v -5.871890 16.609846 -121.722397
v -4.371890 -22.510155 -119.124283
v -5.871890 -22.510155 -121.722397
vt 0.648000 0.983300
vt 0.665900 0.983300
vt 0.665900 0.893800
vt 0.648000 0.893800
vt 0.651400 0.983300
vt 0.669300 0.983300
vt 0.651400 0.893800
vt 0.669300 0.893800
vn -0.8660 0.0000 0.5000
vn 0.0000 1.0000 0.0000
vn 0.8660 0.0000 -0.5000
vn 0.0000 -1.0000 0.0000
vn 0.5000 0.0000 0.8660
vn -0.5000 0.0000 -0.8660
g Scene_1_group_Room5_Curtains_Blinds_Blind11_Scene_1_group_Room5_Curtains_Blinds_Blind11_colors
usemtl colors
s 1
f 89/89/70 90/90/70 91/91/70
f 91/91/70 92/92/70 89/89/70
f 89/89/71 93/93/71 94/94/71
f 94/94/71 90/90/71 89/89/71
f 93/93/72 95/95/72 96/96/72
f 96/96/72 94/94/72 93/93/72
f 96/96/73 95/95/73 92/92/73
f 92/92/73 91/91/73 96/96/73
f 93/93/74 89/89/74 92/92/74
f 92/92/74 95/95/74 93/93/74
f 90/90/75 94/94/75 96/96/75
f 96/96/75 91/91/75 90/90/75
o Scene_1_group_Room5_Curtains_Blinds_Blind12
v -4.718290 16.609846 -120.924286
v -6.218290 16.609846 -123.522385
v -6.218290 -22.510155 -123.522385
v -4.718290 -22.510155 -120.924286
v -4.371890 16.609846 -121.124283
v -5.871890 16.609846 -123.722397
v -4.371890 -22.510155 -121.124283
v -5.871890 -22.510155 -123.722397
vt 0.648000 0.885300
vt 0.665900 0.885300
vt 0.665900 0.795800
vt 0.648000 0.795800
vt 0.651400 0.885300
vt 0.669300 0.885300
vt 0.651400 0.795800
vt 0.669300 0.795800
vn -0.8660 0.0000 0.5000
vn 0.0000 1.0000 0.0000
vn 0.8660 0.0000 -0.5000
vn 0.0000 -1.0000 0.0000
vn 0.5000 0.0000 0.8660
vn -0.5000 0.0000 -0.8660
vn -0.5001 0.0000 -0.8660
g Scene_1_group_Room5_Curtains_Blinds_Blind12_Scene_1_group_Room5_Curtains_Blinds_Blind12_colors
usemtl colors
s 1
f 97/97/76 98/98/76 99/99/76
f 99/99/76 100/100/76 97/97/76
f 97/97/77 101/101/77 102/102/77
f 102/102/77 98/98/77 97/97/77
f 101/101/78 103/103/78 104/104/78
f 104/104/78 102/102/78 101/101/78
f 104/104/79 103/103/79 100/100/79
f 100/100/79 99/99/79 104/104/79
f 101/101/80 97/97/80 100/100/80
f 100/100/80 103/103/80 101/101/80
f 98/98/81 102/102/81 104/104/82
f 104/104/82 99/99/82 98/98/81
o Scene_1_group_Room5_Curtains_Blinds_Blind13
v -4.718290 16.609846 -122.924286
v -6.218290 16.609846 -125.522385
v -6.218290 -22.510153 -125.522385
v -4.718290 -22.510155 -122.924286
v -4.371890 16.609846 -123.124283
v -5.871890 16.609846 -125.722397
v -4.371890 -22.510155 -123.124283
v -5.871890 -22.510153 -125.722397
vt 0.648000 0.983300
vt 0.665900 0.983300
vt 0.665900 0.893800
vt 0.648000 0.893800
vt 0.651400 0.983300
vt 0.669300 0.983300
vt 0.651400 0.893800
vt 0.669300 0.893800
vn -0.8660 0.0000 0.5000
vn 0.0000 1.0000 0.0000
vn 0.8660 0.0000 -0.5000
vn -0.0000 -1.0000 -0.0000
vn 0.5000 0.0000 0.8660
vn -0.5001 0.0000 -0.8660
vn -0.5000 0.0000 -0.8660
g Scene_1_group_Room5_Curtains_Blinds_Blind13_Scene_1_group_Room5_Curtains_Blinds_Blind13_colors
usemtl colors
s 1
f 105/105/83 106/106/83 107/107/83
f 107/107/83 108/108/83 105/105/83
f 105/105/84 109/109/84 110/110/84
f 110/110/84 106/106/84 105/105/84
f 109/109/85 111/111/85 112/112/85
f 112/112/85 110/110/85 109/109/85
f 112/112/86 111/111/86 108/108/86
f 108/108/86 107/107/86 112/112/86
f 109/109/87 105/105/87 108/108/87
f 108/108/87 111/111/87 109/109/87
f 106/106/88 110/110/88 112/112/89
f 112/112/89 107/107/89 106/106/88
o Scene_1_group_Room5_Curtains_Blinds_Blind14
v -4.718290 16.609846 -124.924286
v -6.218290 16.609846 -127.522385
v -6.218290 -22.510153 -127.522385
v -4.718290 -22.510155 -124.924286
v -4.371890 16.609846 -125.124283
v -5.871890 16.609846 -127.722397
v -4.371890 -22.510153 -125.124283
v -5.871890 -22.510153 -127.722397
vt 0.648000 0.983300
vt 0.665900 0.983300
vt 0.665900 0.893800
vt 0.648000 0.893800
vt 0.651400 0.983300
vt 0.669300 0.983300
vt 0.651400 0.893800
vt 0.669300 0.893800
vn -0.8660 0.0000 0.5000
vn 0.0000 1.0000 0.0000
vn 0.8660 0.0000 -0.5000
vn 0.0000 -1.0000 -0.0000
vn 0.5000 0.0000 0.8660
vn -0.5000 0.0000 -0.8660
g Scene_1_group_Room5_Curtains_Blinds_Blind14_Scene_1_group_Room5_Curtains_Blinds_Blind14_colors
usemtl colors
s 1
f 113/113/90 114/114/90 115/115/90
f 115/115/90 116/116/90 113/113/90
f 113/113/91 117/117/91 118/118/91
f 118/118/91 114/114/91 113/113/91
f 117/117/92 119/119/92 120/120/92
f 120/120/92 118/118/92 117/117/92
f 120/120/93 119/119/93 116/116/93
f 116/116/93 115/115/93 120/120/93
f 117/117/94 113/113/94 116/116/94
f 116/116/94 119/119/94 117/117/94
f 114/114/95 118/118/95 120/120/95
f 120/120/95 115/115/95 114/114/95
o Scene_1_group_Room5_Curtains_Blinds_Blind15
v -4.718290 16.609846 -126.924286
v -6.218290 16.609848 -129.522385
v -6.218290 -22.510153 -129.522385
v -4.718290 -22.510153 -126.924286
v -4.371890 16.609846 -127.124283
v -5.871890 16.609848 -129.722397
v -4.371890 -22.510153 -127.124283
v -5.871890 -22.510153 -129.722397
vt 0.648000 0.983300
vt 0.665900 0.983300
vt 0.665900 0.893800
vt 0.648000 0.893800
vt 0.651400 0.983300
vt 0.669300 0.983300
vt 0.651400 0.893800
vt 0.669300 0.893800
vn -0.8660 0.0000 0.5000
vn 0.0000 1.0000 0.0000
vn 0.8660 0.0000 -0.5000
vn 0.0000 -1.0000 0.0000
vn 0.5000 0.0000 0.8660
vn -0.5001 0.0000 -0.8660
vn -0.5000 0.0000 -0.8660
g Scene_1_group_Room5_Curtains_Blinds_Blind15_Scene_1_group_Room5_Curtains_Blinds_Blind15_colors
usemtl colors
s 1
f 121/121/96 122/122/96 123/123/96
f 123/123/96 124/124/96 121/121/96
f 121/121/97 125/125/97 126/126/97
f 126/126/97 122/122/97 121/121/97
f 125/125/98 127/127/98 128/128/98
f 128/128/98 126/126/98 125/125/98
f 128/128/99 127/127/99 124/124/99
f 124/124/99 123/123/99 128/128/99
f 125/125/100 121/121/100 124/124/100
f 124/124/100 127/127/100 125/125/100
f 122/122/101 126/126/101 128/128/102
f 128/128/102 123/123/102 122/122/101
o Scene_1_group_Room5_Curtains_Blinds_Blind16
v -4.718290 16.609848 -128.924286
v -6.218290 16.609848 -131.522385
v -6.218290 -22.510153 -131.522385
v -4.718290 -22.510153 -128.924286
v -4.371890 16.609848 -129.124283
v -5.871890 16.609848 -131.722397
v -4.371890 -22.510153 -129.124283
v -5.871890 -22.510153 -131.722397
vt 0.648000 0.885300
vt 0.665900 0.885300
vt 0.665900 0.795800
vt 0.648000 0.795800
vt 0.651400 0.885300
vt 0.669300 0.885300
vt 0.651400 0.795800
vt 0.669300 0.795800
vn -0.8660 0.0000 0.5000
vn 0.0000 1.0000 0.0000
vn 0.8660 0.0000 -0.5000
vn 0.0000 -1.0000 0.0000
vn 0.5000 0.0000 0.8660
vn -0.5000 0.0000 -0.8660
g Scene_1_group_Room5_Curtains_Blinds_Blind16_Scene_1_group_Room5_Curtains_Blinds_Blind16_colors
usemtl colors
s 1
f 129/129/103 130/130/103 131/131/103
f 131/131/103 132/132/103 129/129/103
f 129/129/104 133/133/104 134/134/104
f 134/134/104 130/130/104 129/129/104
f 133/133/105 135/135/105 136/136/105
f 136/136/105 134/134/105 133/133/105
f 136/136/106 135/135/106 132/132/106
f 132/132/106 131/131/106 136/136/106
f 133/133/107 129/129/107 132/132/107
f 132/132/107 135/135/107 133/133/107
f 130/130/108 134/134/108 136/136/108
f 136/136/108 131/131/108 130/130/108
o Scene_1_group_Room5_Curtains_Blinds_Blind17
v -4.718290 16.609848 -130.924286
v -6.218290 16.609848 -133.522385
v -6.218290 -22.510153 -133.522385
v -4.718290 -22.510153 -130.924286
v -4.371890 16.609848 -131.124283
v -5.871890 16.609848 -133.722397
v -4.371890 -22.510153 -131.124283
v -5.871890 -22.510153 -133.722397
vt 0.648000 0.983300
vt 0.665900 0.983300
vt 0.665900 0.893800
vt 0.648000 0.893800
vt 0.651400 0.983300
vt 0.669300 0.983300
vt 0.651400 0.893800
vt 0.669300 0.893800
vn -0.8660 0.0000 0.5000
vn 0.0000 1.0000 0.0000
vn 0.8660 0.0000 -0.5000
vn 0.0000 -1.0000 0.0000
vn 0.5001 0.0000 0.8660
vn 0.5000 0.0000 0.8660
vn -0.5001 0.0000 -0.8660
vn -0.5000 0.0000 -0.8660
g Scene_1_group_Room5_Curtains_Blinds_Blind17_Scene_1_group_Room5_Curtains_Blinds_Blind17_colors
usemtl colors
s 1
f 137/137/109 138/138/109 139/139/109
f 139/139/109 140/140/109 137/137/109
f 137/137/110 141/141/110 142/142/110
f 142/142/110 138/138/110 137/137/110
f 141/141/111 143/143/111 144/144/111
f 144/144/111 142/142/111 141/141/111
f 144/144/112 143/143/112 140/140/112
f 140/140/112 139/139/112 144/144/112
f 141/141/113 137/137/113 140/140/114
f 140/140/114 143/143/114 141/141/113
f 138/138/115 142/142/115 144/144/116
f 144/144/116 139/139/116 138/138/115
o Scene_1_group_Room5_Curtains_Blinds_Blind18
v -4.718290 16.609848 -132.924286
v -6.218290 16.609848 -135.522385
v -6.218290 -22.510153 -135.522385
v -4.718290 -22.510153 -132.924286
v -4.371890 16.609848 -133.124283
v -5.871890 16.609848 -135.722397
v -4.371890 -22.510153 -133.124283
v -5.871890 -22.510153 -135.722397
vt 0.648000 0.983300
vt 0.665900 0.983300
vt 0.665900 0.893800
vt 0.648000 0.893800
vt 0.651400 0.983300
vt 0.669300 0.983300
vt 0.651400 0.893800
vt 0.669300 0.893800
vn -0.8660 0.0000 0.5000
vn 0.0000 1.0000 0.0000
vn 0.8660 0.0000 -0.5000
vn 0.0000 -1.0000 0.0000
vn 0.5000 0.0000 0.8660
vn -0.5000 0.0000 -0.8660
g Scene_1_group_Room5_Curtains_Blinds_Blind18_Scene_1_group_Room5_Curtains_Blinds_Blind18_colors
usemtl colors
s 1
f 145/145/117 146/146/117 147/147/117
f 147/147/117 148/148/117 145/145/117
f 145/145/118 149/149/118 150/150/118
f 150/150/118 146/146/118 145/145/118
f 149/149/119 151/151/119 152/152/119
f 152/152/119 150/150/119 149/149/119
f 152/152/120 151/151/120 148/148/120
f 148/148/120 147/147/120 152/152/120
f 149/149/121 145/145/121 148/148/121
f 148/148/121 151/151/121 149/149/121
f 146/146/122 150/150/122 152/152/122
f 152/152/122 147/147/122 146/146/122
